<?xml version="1.0" encoding="UTF-8"?>
<!-- Generator: Adobe Illustrator 21.0.2, SVG Export Plug-In . SVG Version: 6.00 Build 0)  -->
<svg version="1.1" id="Lager_1" xmlns="http://www.w3.org/2000/svg" xmlns:xlink="http://www.w3.org/1999/xlink" x="0px" y="0px" viewBox="0 0 800 800" style="enable-background:new 0 0 800 800;" xml:space="preserve">
<style type="text/css">
	.st0{fill:#936DAD;stroke:#FFFFFF;stroke-width:2.1281;stroke-miterlimit:10;}
	.st1{fill:none;stroke:#FFFFFF;stroke-width:17.6139;stroke-linecap:round;stroke-miterlimit:10;}
	.st2{fill:none;}
	.st3{fill:#FFFFFF;stroke:#936DAD;stroke-width:6.5308;stroke-miterlimit:10;}
</style>
<circle class="st0" cx="403.9" cy="401.1" r="358.2"/>
<g>
	<line class="st1" x1="304.2" y1="340.5" x2="263.2" y2="340.5"/>
	<line class="st1" x1="343.8" y1="259.8" x2="343.8" y2="300.9"/>
	<line class="st1" x1="315.8" y1="312.5" x2="287.2" y2="283.9"/>
</g>
<g>
	<polygon class="st2" points="322.8,419.4 309.4,426.1 343.2,459.9  "/>
	<polygon class="st2" points="166.6,498 209.8,583.8 347.8,514.3 276.3,442.8  "/>
	<polygon class="st2" points="644.5,284.6 591,204.8 467.7,287.5 537,356.7  "/>
	<polygon class="st2" points="472.3,341.8 493.8,373.8 500.1,369.6  "/>
	<path class="st3" d="M683.3,279.4l-72.8-108.5c-5.5-8.2-16.6-10.4-24.8-4.9l-143.7,96.4l-30.3,20.3c-8.2,5.5-10.4,16.6-4.9,24.8   l5.1,7.6l52.4,78.2l29.3-19.4l-21.5-32l-26.6-39.6l22-14.7L591,204.8l53.5,79.8L537,356.7l0.3,0.3c7,7,7,18.3,0,25.3l-53.4,38   c5.9,4.5,14.2,5,20.7,0.6l173.9-116.6C686.6,298.7,688.8,287.6,683.3,279.4z"/>
	<path class="st3" d="M271.5,438l4.8,4.8l71.5,71.5l18.1-9.1l-22.8-45.2l-33.8-33.8l-0.8-0.8l29.9-45.1l18.2-27.5l-29.5,4v-22.4   l-48,67.6l-7.6,10.7C264.5,419.7,264.5,431,271.5,438z"/>
	<path class="st3" d="M370.1,342.9l41.9-27.8l-5.1-7.6c-5.5-8.2-3.3-19.3,4.9-24.8l30.3-20.3c-6.9-4.6-16.4-3.9-22.5,2.3L355,310.5   l-5.2,16.6L370.1,342.9z"/>
	<path class="st3" d="M537.2,357l-0.3-0.3l-69.2-69.2l-22,14.7l26.6,39.6l27.8,27.8l-6.3,4.2l-29.3,19.4l-38.7,25.7l-36.3,54.8   l15.7,31.1c0.3,0.6,0.6,1.3,0.8,1.9l44.7-62.9l33.1-23.5l53.4-38C544.2,375.3,544.2,364,537.2,357z"/>
	<path class="st3" d="M389.5,473.7l-43.1-85.6c-1.8-3.5-4.6-6.2-7.9-7.9l-29.9,45.1l0.8,0.8l13.4-6.7l20.4,40.6l22.8,45.2l-18.1,9.1   l-138,69.5L166.6,498l109.7-55.2l-4.8-4.8c-7-7-7-18.3,0-25.3l7.6-10.7l-143.8,72.4c-8.8,4.4-12.4,15.2-7.9,24L186.2,615   c4.4,8.8,15.2,12.4,24,7.9l187-94.2c8.2-4.1,11.8-13.7,8.7-22.1c-0.2-0.6-0.5-1.3-0.8-1.9L389.5,473.7z"/>
</g>
</svg>